<svg data-v-423bf9ae="" xmlns="http://www.w3.org/2000/svg" viewBox="0 0 386 90" class="iconLeft"><!----><!----><!----><g data-v-423bf9ae="" id="676963c7-1990-4c96-aed3-9428befb38ce" fill="#40196D" transform="matrix(5.28169074386773,0,0,5.28169074386773,143.09106354442784,-13.732397472024061)"><path d="M8.16 9.08C8.16 6.90 6.65 5.44 4.39 5.44C2.14 5.44 0.54 6.91 0.54 9.10C0.54 11.29 2.12 12.74 4.46 12.74C6.41 12.74 7.70 11.71 8.05 10.19L5.90 10.19C5.71 10.75 5.20 11.08 4.43 11.08C3.41 11.08 2.89 10.47 2.80 9.47L8.16 9.47ZM4.43 7.16C5.18 7.16 5.62 7.51 5.85 8.12L2.94 8.12C3.17 7.53 3.64 7.16 4.43 7.16ZM14.39 5.60L12.67 10.24L10.92 5.60L8.59 5.60L11.52 12.76L9.87 16.80L12.22 16.80L16.70 5.60ZM21.07 12.74C23.42 12.74 24.96 11.20 24.96 9.10C24.96 7.00 23.42 5.46 21.07 5.46C18.73 5.46 17.17 7.00 17.17 9.10C17.17 11.20 18.73 12.74 21.07 12.74ZM21.07 10.76C20.11 10.75 19.41 10.05 19.41 9.10C19.41 8.16 20.11 7.46 21.07 7.44C22.02 7.46 22.73 8.16 22.73 9.10C22.73 10.05 22.02 10.75 21.07 10.76ZM35.07 5.60L33.88 10.26L32.38 5.60L30.63 5.60L29.14 10.24L27.97 5.60L25.43 5.60L27.84 12.60L30.19 12.60L31.50 8.65L32.81 12.60L35.18 12.60L37.56 5.60ZM41.93 12.74C44.28 12.74 45.82 11.20 45.82 9.10C45.82 7.00 44.28 5.46 41.93 5.46C39.59 5.46 38.03 7.00 38.03 9.10C38.03 11.20 39.59 12.74 41.93 12.74ZM41.93 10.76C40.97 10.75 40.27 10.05 40.27 9.10C40.27 8.16 40.97 7.46 41.93 7.44C42.88 7.46 43.59 8.16 43.59 9.10C43.59 10.05 42.88 10.75 41.93 10.76Z"></path></g><!----><g data-v-423bf9ae="" id="39a1c4cc-1de0-4759-936e-6cf5dfc26faf" transform="matrix(1.2752381974729128,0,0,1.2752381974729128,-0.142141335446496,-18.049526921307532)" stroke="none" fill="#40196d"><switch><g><path d="M15.189 76.299c-2.373-1.404-4.681-2.905-6.804-4.672-.956-.795-1.865-1.637-2.615-2.635-.345-.459-1.643-2.198-1.82-3.166-1.633-3.588.099-4.066-2.888-10.876-.956-2.748-1.611-7.315 12.067-17.204C19.284 32.82 27.134 24.74 31.673 21.67c8.914-5.733 19.202-6.976 20.918-6.833 4.226-.465 16.769.034 29.611 7.594 3.787 2.461 7.239 5.332 10.433 8.52.79.789 1.579 1.577 2.229 2.492 1.224 1.72 2.651 4.906.775 8.002-2.111 4.222 2.299 4.128 3.092 7.235 1.26 3.24 1.91 8.862-10.165 21.958-30.359 26.445-65.048 9.843-73.377 5.661zm36.583-17.458c2.164 1.458 2.945-2.738 6.751-.981 4.586 1.659 2.83-2.928 8.099-1.073 3.747 1.204 2.752-3.472 6.636-2.049 4.109 1.505 2.319-3.173 7.807-2.83 2.669.111 1.501-2.528 4.396-3.186 5.517-.935 3.358-2.913.87-2.329-.974.216-2.546.7-2.73.789-2.698 1.312-11.166 5.491-16.975 6.616-2.264.493-4.559.702-6.867.773-3.749.115-7.494.086-11.227-.353-1.956-.23-13.113-1.386-15.192-2.759-4.761-2.49-4.112 2.026-7.535.177-2.311-1.077-3.04 2.762-5.794.971-1.873-1.158-3.52.724-4.123 1.303-1.717 1.677-3.839-.476-5.578.238-2.536.331-4.257 2.564-3.971 5.105.361 3.198 3.078 4.685 6.382 3.546.311-.104.682-.26.932-.163 3.833-.074 2.225 2.727 6.322 1.741 1.452-.415 1.561-2.321 4.196-1.052 3.415 1.757 3.123-2.635 6.733-1.171 2.44 1.073 2.342-2.83 5.27-1.757 3.892 1.411 3.22-2.732 7.612-.781 4.154 1.846 3.319-3.415 7.986-.775z"></path></g></switch></g><!----></svg>